<svg width="301" height="69" viewBox="0 0 301 69" fill="none" xmlns="http://www.w3.org/2000/svg">
<path d="M111.54 59.4085H86.4604V15.3396H99.7993V48.3405H111.54V59.4085Z" fill="white"/>
<path d="M128.192 59.4085H114.854V15.3396H128.192V59.4085Z" fill="white"/>
<path d="M147.546 46.0377V59.4085H134.207V15.3396H143.739L150.83 30.0667V15.3396H164.169V59.6986H154.027L147.546 46.0377Z" fill="white"/>
<path d="M170.1 15.3396H183.439V30.0667C185.219 30.0304 186.826 28.8857 188.26 26.6324C189.693 24.3792 190.41 20.7987 190.413 15.8908V15.3396H204.044V15.9452C204.044 25.8237 197.473 33.1507 193.5 37.5C198.025 42.756 204.872 49.7427 204.872 58.8863V59.4085H190.413V58.9479C190.413 54.0957 189.804 50.3073 188.588 47.5826C187.371 44.8579 185.653 43.4375 183.431 43.3215V59.4085H170.1V15.3396Z" fill="white"/>
<path d="M245.838 59.4085H232.495V15.3396H245.429L250.834 24.5218L256.268 15.3396H269.289V59.4085H255.965V37.345L252.586 42.9782C251.806 44.2792 249.918 44.2717 249.148 42.9646L245.838 37.345V59.4085Z" fill="white"/>
<path d="M288.811 48.3478H300.489V59.4085H275.479V15.3396H300.489V26.4003H288.811V31.8401H296.986V42.9298H288.811V48.3478Z" fill="white"/>
<path d="M218.554 59.4085C222.087 59.4085 224.952 56.5623 224.952 53.0513C224.952 49.5403 222.087 46.6941 218.554 46.6941C215.021 46.6941 212.156 49.5403 212.156 53.0513C212.156 56.5623 215.021 59.4085 218.554 59.4085Z" fill="#03DC69"/>
<path d="M70.5193 20.6632C70.0266 23.4484 68.4939 25.5989 66.4063 27.4375C65.4538 28.2788 64.5816 29.2145 63.6765 30.0993C61.8518 31.8872 59.9869 33.6641 58.1548 35.4592C56.476 37.102 54.5564 38.2879 52.1915 38.6723C50.7175 38.9309 49.2042 38.8645 47.7588 38.4779C46.3134 38.0912 44.9711 37.3937 43.8269 36.4348C43.1298 35.8763 43.1444 35.8509 43.7575 35.2525C45.2867 33.7657 46.8231 32.2861 48.3486 30.792C48.468 30.6559 48.6196 30.5516 48.7897 30.4883C48.9598 30.425 49.1431 30.4047 49.323 30.4293C50.1749 30.5328 51.0392 30.4408 51.8497 30.1604C52.6601 29.88 53.3951 29.4187 53.998 28.8119C56.0965 26.8355 58.1548 24.8228 60.2022 22.792C62.3189 20.7067 62.3262 17.7475 60.2022 15.6587C58.3592 13.8455 56.6001 11.9379 54.6367 10.248C53.7171 9.44706 52.5307 9.0143 51.308 9.03373C50.0853 9.05317 48.9135 9.52341 48.0202 10.3532C46.1954 12.0068 44.4838 13.7475 42.7247 15.4556C42.1412 15.9611 41.5914 16.5038 41.0788 17.0803C40.119 18.2879 39.619 19.6188 39.8927 21.1746C39.9267 21.3178 39.9205 21.4676 39.8749 21.6076C39.8292 21.7477 39.7457 21.8726 39.6336 21.9688C37.984 23.5644 36.3357 25.1601 34.6885 26.7557C34.2907 27.1437 34.0535 26.9225 33.8053 26.6215C31.2324 23.5608 30.6047 20.1591 32.0025 16.4094C32.7324 14.4112 34.2615 12.9896 35.7615 11.5644C36.7979 10.578 37.8295 9.58798 38.8563 8.59432C40.681 6.8246 42.5058 5.04763 44.3305 3.28879C46.2494 1.48278 48.7939 0.479553 51.4368 0.486979C54.0798 0.494406 56.6185 1.51192 58.5271 3.32868C61.4905 6.20448 64.4174 9.13104 67.3844 11.996C68.9366 13.4543 69.996 15.3546 70.4171 17.4357C70.4501 17.5659 70.4903 17.6943 70.5376 17.8201L70.5193 20.6632Z" fill="#5F32E8"/>
<path d="M19.9409 68.5001C16.7987 68.5508 14.244 67.1909 12.047 65.0005C9.15297 62.0993 6.20782 59.2707 3.33566 56.3732C1.50937 54.5112 0.491216 52.0116 0.500088 49.4116C0.50896 46.8116 1.54415 44.3188 3.38311 42.4693C6.60683 39.2707 9.85732 36.1012 13.1346 32.9606C14.9992 31.1542 17.4727 30.1005 20.0751 30.004C22.6774 29.9075 25.2231 30.7751 27.218 32.4384C27.8457 32.9534 27.8567 33.0295 27.2946 33.5844C25.7327 35.1365 24.1682 36.6862 22.6014 38.2335C22.5032 38.3711 22.3677 38.4782 22.2108 38.5424C22.0538 38.6066 21.8818 38.6252 21.7146 38.5962C19.8241 38.19 18.2439 38.8863 16.9082 40.1193C14.8754 42.0014 12.8937 43.9452 10.9412 45.8999C10.461 46.3562 10.0783 46.9042 9.81626 47.5109C9.55418 48.1177 9.41804 48.7708 9.416 49.4311C9.41395 50.0914 9.54604 50.7453 9.80436 51.3536C10.0627 51.962 10.4419 52.5123 10.9193 52.9715C12.7587 54.821 14.6284 56.6427 16.5286 58.4366C17.4812 59.3191 18.7352 59.8099 20.0376 59.8099C21.34 59.8099 22.594 59.3191 23.5466 58.4366C25.5684 56.5146 27.5708 54.5696 29.5537 52.6016C30.1869 52.0075 30.6698 51.273 30.9628 50.4581C31.2559 49.6432 31.3508 48.7709 31.2398 47.9126C31.2141 47.7697 31.2258 47.6226 31.2738 47.4854C31.3217 47.3483 31.4042 47.2257 31.5135 47.1293C33.1813 45.5264 34.8564 43.9271 36.5096 42.3061C36.8746 41.9434 37.1191 42.1102 37.3965 42.4112C40.8963 46.2335 40.8379 52.3623 37.1556 56.0504C33.8029 59.3916 30.3919 62.6856 26.9224 65.9325C25.9886 66.7997 24.8903 67.4734 23.6916 67.9143C22.4929 68.3551 21.2179 68.5542 19.9409 68.5001Z" fill="#5F32E8"/>
<path d="M27.5063 45.9543C26.7939 45.986 26.0898 45.7924 25.495 45.4015C24.9003 45.0105 24.4456 44.4423 24.1962 43.7784C23.9123 43.1525 23.8342 42.4535 23.9731 41.7809C24.112 41.1084 24.4608 40.4965 24.9699 40.0323C27.3457 37.6315 29.7581 35.2635 32.1631 32.8881C35.1897 29.912 38.2164 26.9431 41.243 23.9815C42.7758 22.4765 44.8378 22.4475 46.2867 23.8945C47.7355 25.3414 47.6771 27.423 46.1699 28.9208C41.6007 33.4611 37.0267 37.9954 32.4477 42.5237C31.6084 43.3541 30.7434 44.1556 29.8931 44.9824C29.5877 45.3037 29.2168 45.5566 28.8052 45.7242C28.3937 45.8918 27.9508 45.9703 27.5063 45.9543Z" fill="#5F32E8"/>
</svg>
